:SAMPLES-PER-SECOND 30
:FULLY-SPECIFIED
:DEGREES
286
root  7.11496 40.0827 -83.7281 178.286 3.87971 179.536
RightUpLeg  -1.68859 0.920268 1.83298
RightLeg  3.17701 7.39738 -0.175146
RightFoot  -0.812953 0.00462104 -0.10429
RightToes  3.97569e-016 -3.18055e-015 -2.98177e-016
Spine  -1.23489 0.567135 -0.402511
Spine1  6.98973 0.646317 0.0230865
HEad  -6.68011 -9.56311 2.35264
LeftShoulder1  -3.88251e-019 9.70628e-020 -3.87848e-018
LeftArm  -28.5196 56.5831 -74.32
LeftForeArm  -1.1117 -16.397 -2.97759
LeftHand  -0.688476 -4.1607 8.94992
RightShoulder  8.67844 11.0603 39.9634
RightArm  18.216 -37.6959 19.6121
RightForeArm  9.21911 18.0367 -6.00827
RightHand  -1.25468 4.43832 -14.6832
LeftUpLeg  -0.636273 -3.24743 -4.43385
LeftLeg  3.02415 0.447552 1.74672
LeftFoot  -2.2349 -0.158887 1.66991
LeftToes  4.86531e-011 4.41684e-011 -2.86034e-011
287
root  7.09844 40.0951 -83.8775 178.393 3.7235 179.588
RightUpLeg  -1.49167 1.01345 1.87195
RightLeg  2.84634 7.1905 -0.208647
RightFoot  -0.677844 0.0192559 -0.254319
RightToes  3.97569e-016 -3.18055e-015 -2.98177e-016
Spine  -1.53224 0.578608 -0.711393
Spine1  7.13422 0.622222 0.220905
HEad  -6.19131 -9.86843 2.53346
LeftShoulder1  -3.88251e-019 9.70628e-020 -3.87848e-018
LeftArm  -28.2881 56.4564 -74.4614
LeftForeArm  -0.642908 -16.4308 -3.12331
LeftHand  -0.732541 -4.56969 9.11946
RightShoulder  8.82834 11.1466 40.4735
RightArm  16.1842 -37.2513 18.8768
RightForeArm  11.8454 17.106 -4.86568
RightHand  -1.2828 4.61193 -14.7565
LeftUpLeg  -0.551973 -3.21202 -4.41551
LeftLeg  2.85415 0.249209 1.67849
LeftFoot  -2.1196 -0.183774 1.92789
LeftToes  4.86531e-011 4.41684e-011 -2.86034e-011
288
root  7.06148 40.0971 -83.8345 178.555 3.564 179.602
RightUpLeg  -1.47264 1.04747 1.86744
RightLeg  2.7398 7.01615 -0.243995
RightFoot  -0.663269 0.028329 -0.347339
RightToes  3.97569e-016 -3.18055e-015 -2.98177e-016
Spine  -1.89218 0.613903 -0.990493
Spine1  7.31477 0.613592 0.455963
HEad  -5.85073 -10.0566 2.53844
LeftShoulder1  -3.88251e-019 9.70628e-020 -3.87848e-018
LeftArm  -28.0847 56.2515 -74.5167
LeftForeArm  -0.131613 -16.2039 -3.31167
LeftHand  -0.719447 -4.52288 9.00074
RightShoulder  8.82238 11.1428 40.4537
RightArm  13.7702 -37.2221 18.5226
RightForeArm  14.5621 16.0455 -3.93923
RightHand  -1.24387 4.60761 -14.3191
LeftUpLeg  -0.579731 -3.20949 -4.45086
LeftLeg  2.77268 0.081685 1.62057
LeftFoot  -2.10402 -0.200479 2.09933
LeftToes  4.86531e-011 4.41684e-011 -2.86034e-011
289
root  7.0269 40.0999 -83.8801 178.687 3.3512 179.592
RightUpLeg  -1.45038 1.06803 1.83205
RightLeg  2.69029 6.78135 -0.318709
RightFoot  -0.695091 0.0324305 -0.38939
RightToes  3.97569e-016 -3.18055e-015 -2.98177e-016
Spine  -2.28435 0.658857 -1.03112
Spine1  7.61401 0.660957 0.470617
HEad  -6.20099 -9.97675 2.75192
LeftShoulder1  -3.88251e-019 9.70628e-020 -3.87848e-018
LeftArm  -27.9711 55.9887 -74.5289
LeftForeArm  0.508797 -15.8513 -3.46568
LeftHand  -0.654459 -3.98865 8.67593
RightShoulder  8.71119 11.0783 40.0776
RightArm  11.522 -37.608 18.3976
RightForeArm  17.0423 14.9788 -3.34404
RightHand  -1.15404 4.42457 -13.5424
LeftUpLeg  -0.561069 -3.22669 -4.50837
LeftLeg  2.66421 -0.11314 1.55058
LeftFoot  -2.10658 -0.206268 2.15561
LeftToes  4.86531e-011 4.41684e-011 -2.86034e-011
290
root  7.00742 40.1082 -84.088 178.766 3.10295 179.61
RightUpLeg  -1.3146 1.12511 1.82394
RightLeg  2.52595 6.47513 -0.399303
RightFoot  -0.648197 0.0369716 -0.43595
RightToes  3.97569e-016 -3.18055e-015 -2.98177e-016
Spine  -2.58536 0.684273 -1.00125
Spine1  7.93472 0.699099 0.41991
HEad  -7.18617 -9.57316 3.24597
LeftShoulder1  -3.88251e-019 9.70628e-020 -3.87848e-018
LeftArm  -27.929 55.8447 -74.4816
LeftForeArm  1.12608 -15.5573 -3.56202
LeftHand  -0.611354 -3.53812 8.52813
RightShoulder  8.6456 11.0409 39.8526
RightArm  9.9878 -38.0302 18.0498
RightForeArm  18.9596 14.042 -2.97803
RightHand  -1.10133 4.30616 -13.0867
LeftUpLeg  -0.467975 -3.2277 -4.52795
LeftLeg  2.51936 -0.345717 1.48934
LeftFoot  -2.0614 -0.209995 2.18999
LeftToes  4.86531e-011 4.41684e-011 -2.86034e-011
291
root  6.98342 40.1123 -84.1698 178.826 2.83311 179.652
RightUpLeg  -1.15737 1.20439 1.85917
RightLeg  2.34539 6.14021 -0.464377
RightFoot  -0.554933 0.045867 -0.527158
RightToes  3.97569e-016 -3.18055e-015 -2.98177e-016
Spine  -2.68045 0.680075 -1.23151
Spine1  8.09733 0.634884 0.684488
HEad  -8.38551 -8.86254 3.74837
LeftShoulder1  -3.88251e-019 9.70628e-020 -3.87848e-018
LeftArm  -28.0321 55.9668 -74.4819
LeftForeArm  1.44638 -15.4171 -3.57824
LeftHand  -0.623385 -3.56202 8.66699
RightShoulder  8.64497 11.0437 39.8431
RightArm  9.30401 -38.3106 17.3588
RightForeArm  20.091 13.3351 -2.71819
RightHand  -1.11965 4.35112 -13.2401
LeftUpLeg  -0.408498 -3.25088 -4.55352
LeftLeg  2.43563 -0.563644 1.50062
LeftFoot  -2.00209 -0.221747 2.30871
LeftToes  4.86531e-011 4.41684e-011 -2.86034e-011
292
root  6.95096 40.1098 -84.1165 178.9 2.51195 179.657
RightUpLeg  -1.09448 1.20211 1.83921
RightLeg  2.32613 5.85428 -0.494749
RightFoot  -0.546222 0.0583971 -0.655645
RightToes  3.97569e-016 -3.18055e-015 -2.98177e-016
Spine  -2.58257 0.651668 -1.63142
Spine1  8.00146 0.507677 1.12999
HEad  -9.36106 -8.07027 3.99028
LeftShoulder1  -3.88251e-019 9.70628e-020 -3.87848e-018
LeftArm  -28.2782 56.3101 -74.5313
LeftForeArm  1.46012 -15.2729 -3.54164
LeftHand  -0.643143 -3.7004 8.79941
RightShoulder  8.66492 11.057 39.9073
RightArm  9.16588 -38.5548 16.4258
RightForeArm  20.5993 12.8077 -2.47163
RightHand  -1.15069 4.3919 -13.5477
LeftUpLeg  -0.409057 -3.32808 -4.64082
LeftLeg  2.39649 -0.768811 1.54875
LeftFoot  -1.9698 -0.237361 2.46817
LeftToes  4.86531e-011 4.41684e-011 -2.86034e-011
293
root  6.92962 40.1103 -84.1986 179.022 2.11392 179.62
RightUpLeg  -1.11855 1.09366 1.72244
RightLeg  2.40338 5.6063 -0.473905
RightFoot  -0.625147 0.0709793 -0.784678
RightToes  3.97569e-016 -3.18055e-015 -2.98177e-016
Spine  -2.44725 0.593928 -1.84783
Spine1  7.7226 0.412672 1.31274
HEad  -9.96105 -7.50066 4.03804
LeftShoulder1  -3.88251e-019 9.70628e-020 -3.87848e-018
LeftArm  -28.4806 56.6891 -74.4334
LeftForeArm  1.45318 -14.8747 -3.52918
LeftHand  -0.631311 -3.5558 8.78101
RightShoulder  8.728 11.0915 40.1266
RightArm  9.26481 -38.8103 15.2687
RightForeArm  20.8687 12.3612 -2.23029
RightHand  -1.14172 4.31679 -13.5433
LeftUpLeg  -0.44272 -3.40997 -4.73462
LeftLeg  2.31094 -1.0468 1.54252
LeftFoot  -1.95466 -0.244836 2.54225
LeftToes  4.86531e-011 4.41684e-011 -2.86034e-011
294
root  6.91689 40.1161 -84.3685 179.216 1.68274 179.614
RightUpLeg  -1.14243 1.02155 1.6399
RightLeg  2.34777 5.27333 -0.439628
RightFoot  -0.668981 0.0790526 -0.867478
RightToes  3.97569e-016 -3.18055e-015 -2.98177e-016
Spine  -2.48286 0.49868 -1.9664
Spine1  7.48795 0.292078 1.43914
HEad  -10.3543 -6.89357 3.9078
LeftShoulder1  -3.88251e-019 9.70628e-020 -3.87848e-018
LeftArm  -28.6786 56.9996 -74.2596
LeftForeArm  1.61587 -14.1728 -3.53212
LeftHand  -0.623253 -3.40467 8.82004
RightShoulder  8.78997 11.1256 40.3409
RightArm  9.22238 -39.0543 14.2343
RightForeArm  21.3096 11.8411 -2.06317
RightHand  -1.12365 4.28121 -13.3799
LeftUpLeg  -0.531366 -3.46227 -4.76671
LeftLeg  2.18568 -1.40092 1.50656
LeftFoot  -1.94659 -0.242969 2.51845
LeftToes  4.86531e-011 4.41684e-011 -2.86034e-011
295
root  6.89274 40.1203 -84.391 179.432 1.31137 179.665
RightUpLeg  -1.11099 1.06608 1.67156
RightLeg  2.11836 4.86091 -0.435045
RightFoot  -0.639887 0.0794952 -0.872018
RightToes  3.97569e-016 -3.18055e-015 -2.98177e-016
Spine  -2.67061 0.438278 -2.13247
Spine1  7.37998 0.164285 1.74841
HEad  -10.5523 -6.08186 3.48919
LeftShoulder1  -3.88251e-019 9.70628e-020 -3.87848e-018
LeftArm  -29.0052 57.2121 -74.1692
LeftForeArm  2.0007 -13.2578 -3.50343
LeftHand  -0.651202 -3.59416 9.01118
RightShoulder  8.7883 11.1249 40.3345
RightArm  8.99424 -39.3647 13.5558
RightForeArm  21.722 11.294 -2.06138
RightHand  -1.13319 4.37138 -13.3713
LeftUpLeg  -0.651977 -3.52205 -4.77337
LeftLeg  2.07614 -1.69926 1.52624
LeftFoot  -1.95816 -0.241859 2.50318
LeftToes  4.86531e-011 4.41684e-011 -2.86034e-011
296
root  6.86147 40.1212 -84.359 179.584 1.06293 179.704
RightUpLeg  -1.05469 1.10227 1.69336
RightLeg  1.92902 4.58036 -0.435346
RightFoot  -0.634524 0.0732992 -0.808471
RightToes  3.97569e-016 -3.18055e-015 -2.98177e-016
Spine  -2.8966 0.446062 -2.32612
Spine1  7.3753 0.0838848 2.16076
HEad  -10.4481 -5.29063 2.84818
LeftShoulder1  -3.88251e-019 9.70628e-020 -3.87848e-018
LeftArm  -29.4767 57.3889 -74.2128
LeftForeArm  2.38868 -12.3227 -3.43032
LeftHand  -0.676627 -3.81655 9.12865
RightShoulder  8.72505 11.0901 40.116
RightArm  8.61517 -39.7217 13.2558
RightForeArm  21.8527 10.7307 -2.16323
RightHand  -1.14756 4.42696 -13.4646
LeftUpLeg  -0.702168 -3.60211 -4.8166
LeftLeg  1.97497 -1.8546 1.57366
LeftFoot  -1.99397 -0.246226 2.54624
LeftToes  4.86531e-011 4.41684e-011 -2.86034e-011
297
root  6.83835 40.1211 -84.4597 179.665 0.946686 179.686
RightUpLeg  -1.06574 1.03284 1.60473
RightLeg  1.95885 4.55116 -0.421186
RightFoot  -0.724057 0.0643152 -0.716335
RightToes  3.97569e-016 -3.18055e-015 -2.98177e-016
Spine  -3.11231 0.477719 -2.42718
Spine1  7.41799 0.0641866 2.41828
HEad  -10.1928 -4.65912 2.30743
LeftShoulder1  -3.88251e-019 9.70628e-020 -3.87848e-018
LeftArm  -29.876 57.625 -74.2259
LeftForeArm  2.52577 -11.6022 -3.35934
LeftHand  -0.659375 -3.66469 9.05048
RightShoulder  8.67745 11.0632 39.9526
RightArm  8.24847 -39.9766 13.127
RightForeArm  21.6557 10.2273 -2.25983
RightHand  -1.13571 4.30159 -13.4938
LeftUpLeg  -0.67694 -3.65646 -4.88616
LeftLeg  1.89132 -1.90453 1.56453
LeftFoot  -2.05952 -0.25008 2.58476
LeftToes  4.86531e-011 4.41684e-011 -2.86034e-011
298
root  6.81385 40.1178 -84.5654 179.749 0.966675 179.645
RightUpLeg  -1.20095 0.95531 1.49338
RightLeg  2.15313 4.66049 -0.442204
RightFoot  -0.865468 0.0555539 -0.626489
RightToes  3.97569e-016 -3.18055e-015 -2.98177e-016
Spine  -3.2446 0.500387 -2.42858
Spine1  7.33923 0.0763971 2.4918
HEad  -9.948 -4.04015 2.14634
LeftShoulder1  -3.88251e-019 9.70628e-020 -3.87848e-018
LeftArm  -30.0683 58.0338 -74.0861
LeftForeArm  2.40678 -11.2527 -3.31033
LeftHand  -0.632428 -3.36487 8.98777
RightShoulder  8.683 11.0659 39.9727
RightArm  8.1376 -40.1236 12.918
RightForeArm  21.2169 10.0734 -2.32529
RightHand  -1.11689 4.10639 -13.5364
LeftUpLeg  -0.703966 -3.67292 -4.95097
LeftLeg  1.91069 -1.86924 1.51727
LeftFoot  -2.1805 -0.249173 2.57422
LeftToes  4.86531e-011 4.41684e-011 -2.86034e-011
